<?xml version="1.0" encoding="UTF-8" standalone="no"?>
<svg
   width="47.964504"
   height="35.188"
   viewBox="0 0 47.964504 35.188"
   fill="none"
   version="1.1"
   id="svg3"
   xmlns="http://www.w3.org/2000/svg"
   xmlns:svg="http://www.w3.org/2000/svg">
  <path
     d="M 47.9645,14.1003 V 35.188 H 39.6077 V 14.7215 c 0,-4.3087 -1.7956,-6.5061996 -5.4479,-6.5061996 -4.015,0 -6.026,2.5995996 -6.026,7.7341996 V 27.1522 H 19.8272 V 15.9495 c 0,-5.1346 -2.0146,-7.7341996 -6.0296,-7.7341996 -3.6308,0 -5.4444003,2.1974996 -5.4444003,6.5061996 V 35.188 H -2.6092529e-7 V 14.1003 C -2.6092529e-7,9.7916004 1.1000997,6.3686004 3.3003997,3.8312004 5.5699997,1.2998004 8.5471997,3.5858154e-7 12.2425,3.5858154e-7 16.5197,3.5858154e-7 19.7518,1.6445004 21.9066,4.9299004 l 2.0793,3.4901 2.0829,-3.4901 C 28.2235,1.6445004 31.4556,3.5858154e-7 35.7256,3.5858154e-7 c 3.6918,0 6.6689,1.29980004141846 8.9458,3.83120004141846 2.1978,2.535 3.2955,5.958 3.2931,10.2690996 z"
     fill="#ffffff"
     id="path2" />
  <defs
     id="defs3" />
</svg>
